<mxfile host="65bd71144e">
    <diagram id="HIP3nbAZw_EuaXWnEj3U" name="Page-1">
        <mxGraphModel dx="911" dy="639" grid="1" gridSize="10" guides="1" tooltips="1" connect="1" arrows="1" fold="1" page="1" pageScale="1" pageWidth="850" pageHeight="1100" math="0" shadow="0">
            <root>
                <mxCell id="0"/>
                <mxCell id="1" parent="0"/>
                <mxCell id="7" value="http://ics2o.mths.ca" style="swimlane;whiteSpace=wrap;html=1;" parent="1" vertex="1">
                    <mxGeometry x="45" y="80" width="805" height="480" as="geometry"/>
                </mxCell>
                <mxCell id="9" value="" style="shape=image;imageAspect=0;aspect=fixed;verticalLabelPosition=bottom;verticalAlign=top;image=data:image/jpeg,/9j/4AAQSkZJRgABAQEAYABgAAD//gA7Q1JFQVRPUjogZ2QtanBlZyB2MS4wICh1c2luZyBJSkcgSlBFRyB2NjIpLCBxdWFsaXR5ID0gODAK/9sAQwAGBAUGBQQGBgUGBwcGCAoQCgoJCQoUDg8MEBcUGBgXFBYWGh0lHxobIxwWFiAsICMmJykqKRkfLTAtKDAlKCko/9sAQwEHBwcKCAoTCgoTKBoWGigoKCgoKCgoKCgoKCgoKCgoKCgoKCgoKCgoKCgoKCgoKCgoKCgoKCgoKCgoKCgoKCgo/8AAEQgBRwI6AwEiAAIRAQMRAf/EAB8AAAEFAQEBAQEBAAAAAAAAAAABAgMEBQYHCAkKC//EALUQAAIBAwMCBAMFBQQEAAABfQECAwAEEQUSITFBBhNRYQcicRQygZGhCCNCscEVUtHwJDNicoIJChYXGBkaJSYnKCkqNDU2Nzg5OkNERUZHSElKU1RVVldYWVpjZGVmZ2hpanN0dXZ3eHl6g4SFhoeIiYqSk5SVlpeYmZqio6Slpqeoqaqys7S1tre4ubrCw8TFxsfIycrS09TV1tfY2drh4uPk5ebn6Onq8fLz9PX29/j5+v/EAB8BAAMBAQEBAQEBAQEAAAAAAAABAgMEBQYHCAkKC//EALURAAIBAgQEAwQHBQQEAAECdwABAgMRBAUhMQYSQVEHYXETIjKBCBRCkaGxwQkjM1LwFWJy0QoWJDThJfEXGBkaJicoKSo1Njc4OTpDREVGR0hJSlNUVVZXWFlaY2RlZmdoaWpzdHV2d3h5eoKDhIWGh4iJipKTlJWWl5iZmqKjpKWmp6ipqrKztLW2t7i5usLDxMXGx8jJytLT1NXW19jZ2uLj5OXm5+jp6vLz9PX29/j5+v/aAAwDAQACEQMRAD8A+qaKKKACiiigAooooAKKKKACiiigAooooAKKKKACiiigAooooAKKKKACiiigAooooAKKKKACiiigAooooAKKKKACiiigAooooAKKKKACiiigAooooAKKKKACiiigAooooAKKKKACiiigAooooAKKKKACiiigAooooAKKKKACiiigAooooAKKKKACiiigAo/KiigAooooAKKKKACiiigAooooAKKKKACiiigAooooAKKKKACiiigAooooAKKKKACiiigAooooAKKKKACiiigAooooAKKKKACiiigAooooAKKKKACiiigAooooAKKKKACiiigAooooAKKKKACiiigAooooAKKKKACiiigAooooAKKKKACiiigAooooAKKKKACiiigAooooAKKKKACiiigApKWigAooooAKKKKACiiigAooooAKKKKACiiigAooooAKKKKACiiigAooooAKKKKACiiigAooooAKKKKACiiigAooooAKKKKACiiigAooooAKKKKACiiigAooooAKKKKACiiigAooooAKKKKACiiigAooooAKKKKACiiigAooooAKOaKKACiiigAooooASilooASilooAKKKKACiiigAooooAKKKKACiiigAooooAKKKKACiiigAooooAKKKKACiiigAooooAKKKKACiiigAooqC6u7a0iMl3PFBGOryuFH5mjYNyeqWratp+j2pudVvraytxx5lxKEXPpkmuE8d/Fzw54e0q6bT7+31HUwhEEEB8xS/bcw4Az15zXyz4i1vU/EupvqGu3b3dy3QMfkjH91F6KK5K2LhT21Z10MHOo9dEfYmnfEPwjqV0Laz8RadJOxwqGYKWPoM4z+FdSDnpX5/tGrDDKCPpXffD/wCKev8Ag6SOBpX1PRxw1pO+WQf9M36r9Dke1Y0sepO01Y2q5e4q8Hc+w6KxvCXiTTvFWg22raTIXtpgeGGGRh1Vh2IP+cVsZr0E01dHntNOzFopMijIpiFooooAKKKKACiiigAooooAKKKKACiiigAooooAKKKKACiiigAooooAKKKKACiiigApKWigApKWigAooooAKKKKACiiigAooooAKKKKACiiigAooooAKKKKACiiigAooooAKKKKACiiigAooooAKKKKACiiigAoqOeaO3heWeRI4kG5ncgBQO5J6V4745+N1jYyPZeFIRqV2Tt+0MD5Sn/ZA5f9B7msqtaFJXmzWlQnWdoK567f31rp9q9zf3MNtboMtJK4RR+Jry7xD8atKhuDZ+GbK51q8PCmNSkefrjcfwGPevOYPDniPxpdrqHjTULhYM7ktycNj0C9EH4Zru9L0iy0WzaLSrOKMhfoXPbc3JrxMTnDXu0ketSy2Edaju/wMO71X4k+JMma+g0K1b/lnb/K+PqMtn/gQqlF8OLWeXz9b1O/1Gc9Wd8Z/PJ/WtTwvqF7qOoXTXd9DKkI2mG0i/co2enmkZZh7cV09eRWxVab96R6EKcaekFY+ePiXpdnpXisWVhB5NvFbo4G5m3MSckkk1zVe3/E3wXN4i8m/wBLZBqMCeWUc4EyZzjPYgk4+teTyeGPEMcpifQtQLjj5Ity/wDfQ4rro1FKC11M3o3cyKRiFGScAd667TPh14mv2HmWsNjGf47mUZ/75XJ/PFdV4F8DaS2oXEt0smpraP5fnSgLC0g6hEGdwHqT+FOVWEVdsaTeyMDwP4B1HWNKN+b02EMzlolKMWdf72Mjg10p+HGrRD/RvET5HTIdf5Ma9PACqAAABwKitrmC5TfbTRzJnG6Ngwz+FcMsTUbujRKysfO+sat4j0XWLrTU1q+WS2bY8iXUgB4B4GR61m3Or6veTrPfaxqVzOq7VkkuXJUdcA54HJr2zxx4DtPEsn2yCU2ephdvmhcrIB0Djv8AXr9a8v1L4feJ7BjiwS8jH8drIDn/AICcH9K76WJUorWzMZQV7tEvhb4j+K/DV0klpq1xd24Pz2t7I0sbD0GTlfqCK+m/hr8RNJ8dWLG1JtdShAM9lIfnT/aU/wAS+4/HFfIc+katbnE+kalGf9q2f/Ctfwlo3itdXhvtAtb+yniDf6QwMIxjplsZ+ld1HGSpfE7o5K+EhV+HRn23RXzxZfEj4h6CAutaOmpQr95/Kw3/AH1H8v6V0ekfHvRJiE1fTb+xk7lNsqj69D+lehTx9CpszhngK8Ol/Q9korgl+L3gY2/nNr8KDgFGikDj/gO3NbGl+O/CuqbRY+IdMkZuiG4VW/75JB/SulVIPZnK6c47o6Wimo6uoZGDKeQQcg06rICiiigAooooAKKKKACiiigAooooASloooAKSlooAKKKKAEopaKACiiigAooooAKKKKACiiigAooooAKKKKACiiigAooooAKKKKACiiigAooooAKKKKACiiigAooooAKKKKACuT8eeO9H8GWe/UZfMvHGYrSI5kf39h7n9a1fF2tReHvDWo6rPt220JdVP8AE3RV/FiB+NfOvgjQH8T3UvifxLI15NPITGknIYg4yR6DoF6cV5+Pxqw0dN2d2Cwirtylsh+pXni74oT+ZeSf2boW7KQjIQj1x1c+549MVd/4pH4fIvnyB9QIyMjzJ2+gH3R+VX/iV4lk8M6ArWUZ+13LeTC+35Izj7x7cDoO/wCBrwN2eWZ5p5HlnkO55HOWY+pNeAnPE+/Ueh7StBckFZHrp+L1h52F0m+MOfvFkDY/3c/1ruPDniHTfEVmbnS5/MCnDxsNrxn0Ydv5V801o+HdauPDusw6laEkIcTRg8Sx91P8x7iieFg17ujDmaPppVCjCgAegpais7mK8tYbm3YPDMgkRh3UjINTV5poJUF41wkJNnFHLLnhZJCi/mAf5VYooGc5c6ZreqDy7/UYbO0P34rFTvcenmN0/AVuWVpBY2kVtaRLFBEu1EXoBU9FNyb0ASuH8YWeli9zprXEXiOUfu1sH2u59ZOwX1Jqx4pea2ElxrviFdL0vcQkVqu2SQem7lifZRXMWXxD8M6KrxaNpN9IG+9MVUGQ+pZm3H8a3p0pbx1E5KJ0tlbeN7OFN93pN8ccrMGVh+KgZ/Gum0qS+ktc6pBBBcZxthkLqR68gY+nNeL638TtdvpnGm+Vptv/AAgIJJD9SePyFYkXjLxNFL5qa3dF/RwrL/3yRitfq05LWyJ5/I+j6K8s8I/FJZpo7TxLHHAzHat3FxGT/tj+H69PpXqakMoKkEHkEd65alKVN2kNSTOD+I/jiTw3NDYadbpLfzR+bvlzsjXJAOB1OQeK8c1vVdR12fztWvJLhh0UAIo+gFe+eLvB+meKFja9EkV1ENsdxCcMB6HPBHsa861P4TapBubTdRtrpRyEmQxN9MjI/lXZh6lKMV0ZEk76nnKRon3VAoaNG+8qn6ir+s6RqeiSiPV7Ga1ycK7DKN9GHBqkDxXZdvUWhseGfE+u+F7hZdB1O4tQDkw7i0L+zIeD/OvqP4SfEu08c2TwXEaWmt265ntgfldf76Z6r7dR+RPyJWh4d1qfw34g07WbTd5lnMsjKrbd6Z+ZCfQjIrqw2JlTlZvQ5MThY1Itpan3fRWP4V8R6b4o0iHUdInWWBx8y/xRt3Vh2NbFe2mpK6PEacXZhRRRTEFFFFABRRRQAUUUUAFFFFABRRRQAUUUUAFFFFABRSUtABRRRQAUUUUAFFFFABRRRQAUUlLQAUUUlAC0UUUAFFFJQAtFQ3F1b2yhrmeKFT0Mjhf50+KVJow8Tq6HoynIP40APoopKAFopKM0ALRSUZ96AForPn1rS7dys+pWUTDs86qf1NVL7xX4fsbd57vW9NiiQFiTcp09hnmp5o9yuWXY26K8U1r9oTQrdmTR9L1DUSOjviBD9Ccn9K5a8/aH1qTd9j0DT4fTzp3kx+QWsZYqlHdm0cLVltE1/j3rdzrniXT/AAZpjfKGWW4I7uRkA+yr834+1dBpdjDpunW9nbDEUCBF98d/x614/wCA/EsuufEqTUtZ8oX14GU7BhQ+0YxnthcV7VXy2Y1pVKrvse/h6ap0oxX9Mpa1pdrrOmT2F/GJLeZcEdx6EehFfO3inw/eeGdUazvQXiYk29xj5ZV/ow7ivpaqWsaVZazYvZ6lbpcW7/wsOh9QeoPuK56Ff2ej2LlG+qPmCgivR/EfwqvLUvN4euBdQ9fs1wQsg9g3Q/jivPL63uNPuDb6jbzWk4/gmUqT9PUV6EJxn8LuRe257n8HrxrvwPbRuSWtZJLfJ9Acj9CBXbVwHwThaPwa8jAhZ7uSRD6jhf5qak+Kniufw/YW9pprBb+83bZCM+UgxlvryAPxrz6lNzrOMe5cXaNzuWZVIDMB9TS18pXG65maa6kknmY5aSVyzE/U1paLr2raHMsul30yKpyYXctE/sVPH49a2eD00kLnfY+nKSsrwtrMWv6DaalCuwTL8yZ+4wOGH5g1eu7y2s0D3dxDAp7yuFH61xOLTs9y1qeB/FK6uLrx1fx3RbZbBI4EPRVKg5H1JNctXrnxBi0rxZEP7Ftbq+1aEbUurSP92o/uux4IrhL7wR4msVDSaVJOhAO62YP/AOO9f0r1KU4uKWzM2nHc56ipLqC4syReWtzbEf8APaFk/mKrNPGUbDqTg8ZrazFdB50TDBdSD6mvc/gvqFze+E3iuWaRLScwQyHnKYBAz7Zx9MVseEtFsT4P0aK7sraZhaRk+bErclQT1HvXQ21vDawrDawxwxL0SNQqj8BXBiK8ZJwSKjF3uF4Z1tJjaKjXARjGrnClscA+2aq6Xc3s+5b+xFqyxxtkSBwzEfMBj0P55q/RXJfSxoR3MENzA8NxEksLjDI6hlYe4NeaeKfhXbzF7jw3KLSU8m2lJMTfQ9V/UfSvT6KunVlT+FkuKe58vavpl/otx5Gr2ctpJnALjKN/usODVJipQ5I2kcnNfVNzbw3ULQ3MMc0TdUkUMp+oNYSeCfDSXInXRbMSA5HyfL/3z0/SuuOMjb3kTys848AaD4s0/SLTXfDd99mmlU/uSxUuoJAyCNrA4zz616JY/GfW9FdIfGPh5vTz7fKZ9wDlW/BhXSABQAoAA4AFNljSaNo5UV0bgqwyD+FOlmNWm3y7E1MPTqr31c6Hwv8AE3wt4iZI7XUVt7luBb3Q8pyfQZ4J+hNdoDmvm/xD4S8L3uoiyRxpupSLujEYKq/0B+U/QYNV9O8Q+M/hrKizudW0JTja5LKo9A3WM/mPrXr4fN4z0qKx59bLOtJ/Jn0zRXL+BvG2keMrHztLm23CAedbScSR/Udx7jiunr2IyU1eL0PKlCUHyyVmLRSUtUSFFFFABRSUtABRRSUALRRRQAUUlFAC0UUlAC0UUUAFFJS0AFFFJQAtFFFABRSUtABRRSUALRVLVNUsNKtjcaneW9pCP45pAg/WvK/HPxx0LS9Oni8PNJqOpMpSFxGViR+xJbBIHXAHPqKznVhD4maQozqfCrneeOfGmj+C9L+16xPh3yIbePmWZvRV/qeBXzT4y+MHinxHNIlpdPounk/LBZtiQj/ak65+mBXDaxqd/repSahrF3LeXsn3pZD0Hoo6Aew4qpXlV8ZKekdEetQwUYaz1YXG65laW6kknlbq8rl2P4mtfwr4l1nwnfLdaBfSW5By8BJaKUejJ0P16jtWRRXIpyi7pnW6cZKzR9ARftAXN+sdvpPhl5b7YN6NMWw2OcKq5Iz3zTZPiH8S7/8A49NDtLVT0zCQf/H3/pXivhK8bTvFmj3SdRcpG3urnaf0NfTFRiswrwas9yKeForTlOIk1n4s3XW+gtgeyrAP5KTULQ/E6fmTxIEz6TFf/QUrvaK4Xj67+0bqjTW0V9xwDaN8QpuJvF86D/Yu5R/ICoJfAmvX426r4qu5lPUM0kmf++mr0aql6b5Pnslt5QOsUhKE/Rhn+X41DxVWWjkUoxWyRw8Xws0iKMtc3t6+0ZJUqo/ka8VuBDPdSyQ7/svmMYUc5ITPGfU4r6Wi8QWBl+z30gsbvHMF0Qh/A9GHuCa4nXfhVY3jtc6Demz3/MIWHmRHP93uB+da0K3K37RhO7PIKK6zUPh14nsidtnDeIP4raYfybBrBu9G1ezz9r0nUIQP4mt2x+YGK61KMtmZ37meJJbW4iu7Zik0TBgV68HNfRvgfxHD4l0SO5UqLlAFnQdm9foev5jtXzh5qbiCwDDseP51s+C9fn8Na4k8BL27j95Fnh17j69xWdej7SPmiovWx9L0VW069g1Gxhu7OQSQSruVh/nrVmvKNAqC8srW9i8q9tobiPrslQOPyNT0UJ2EMghjghSKCNI4kGFRFACj0AFeafGjQLu9hs9WsonmFqrRzxoMsEJBDAexzn616JqN9Bp1t9ou2KQBgrPjITJxk+gz3qyCGUFSCDyCK0pzdOSmJq6PlFZY26Ov504NudUjBkkY7VRBlmPYAV9Ky6NoWsL9om06wutxOZGhUtkdQTjOfapdN8P6Rpkvm6fplnby/wB+OFQ359a7PrcexPKzN+HOjz6H4RsrS8G25O6WRf7pYk4/AYFat9ommX92tzfWMFxOq7Q0qBsD0weK0KK4ZTcpOXctKysNijSKNUiRURRgKowB+FOooqRmBqTT6JdPfRI8+mSnN1Co3NCe8ijuP7w/H1q1/ZuiatbpObLT7yGQZVzCjhh9cVq1BbWlvamQ20EcPmNufy1C7j6nHeq5tPMW5LHGsUaxxqFRQFVQMAAdqbcNIkDtDH5sgGVTdt3e2TUlFSM5uXxJeRMUfw3q5f8A2FRl/MNUJ1PxRenFjotvYp/z0vp93/jqc11VNkkSKNnkZURRksxwAPrVqS6ILnNfZfFyjeNR0p3/AOebW7BfzBzW1pL6g9sf7Vht4pwcfuJCysPXkAj6c1iXvj/wvZymOXV4WYcHylaUfmoIqfS/Gnh3VJVis9WtzK3ASQmMk+wYDNW4TtrH8CeZdzoaKKKxKIrsT/ZpPshjFxj5DKCVz745rmjF40DZE+hMPQpKK6qiqUrdAOXutJ1HXdNntPEEFhG4G63uLWRyySdiARx+dP8AA2qvrGhtBqIDX1qxtrpHHJI4yR7j9c10tedfF+SXSNFS60rNpPeXKRXNxB8jsu1iAWHPUda0p/vHyCbsrjfEXhK80LUF1/wZJJb3MJ3tBH+u0dx6qf8A61eufCr4iWvjTTzDOEt9ZgX9/Bnhh/fT29u35E/L2i+M/EGjyBoNRluYh1hu2Mqn8TyPwNadx4jt5dUg8Q6AzaTrkLb5rYn5XPd0PRgf4l/TrXr4StVwzs9YnLiKEcRGz0l0Z9mUVyHw18bWfjXQluotsV9FhLq3B5jb1H+yex/DtXXV9FCamlKOx8/ODhJxluhaKSiqJFopKKAFopKKAFopKKAFopKKAFooooAKKKKACikpaACiiigAooooAKKQnA5rwv4rfFad7t/D3gt2kuS3ly3cPzHd/cix39W/L1rKtWjRjzSNqFCdeXLA9N8XeO/D/hRD/at8guMZFtF88p/4COn1OBXld78TvFni12h8H6aum2WdpvJ8M35n5R9AGPvXP+FPh2A4v/EzG4uXO/yC24Z9XP8AEf0+tejxRpFGscSKkajCqowAPYV87ic3nL3aeh7VHAUqesveZw0Xw/8At9x9r8UareapdnrmQhfpk5OPpivI/GCWS+Kr+LTYFgtLVzbooYtkrwzEknnOa+l687b4TaNJLJLLf6ozuxdj5qDJJyf4K4aOI1cqjOqSeiR4vRXtsfwo8PL96TUJP964/wAAKsL8LvDAHNtcN9bl/wDGtvrVMm0jwqgkAZJwK9zf4W+GW+7DdJ/u3Df1qzp/w48MWcgk/s83DjkG4kaQfkTg/lR9ap+YWkeZfDLw1ca3rtrfvEy6ZZSCUykYEjryqr688mvZbrXkgcqNP1SVh2jtGIP49K1ookhiWOJFjjUYVVGAB6AVQ1LWLSwlSCRmlu5PuW8K75G99o6D3OB71yVKvtZXsXGNih/aOu3vFjpCWiHpLfyj/wBATJ/UU1tJ12bmbxE0ZP8ADb2iKB+LZNb8LtJEjvG0TMMlHxlfY4JH5GnOyohZ2CqBkk8ACsua2yKOeXRtaT7niac/79pE39KkGn+IE6a7bv8A79gP6OKoat8Q/DWms0bagLmVf4LVTL+o+X9a5u5+L9oHP2TRruRfWWRYz+QzW0aVWX2fyJc0dnJpup3QVNSfSLyJTnbJZN/VyP0rcjRY41RFVVUYCqMAfSuM8KfEXS9evEspIpbG9fhEmIKyH0Vh39jiu1rKpGUXaSsNNPYjuJoraCSad1jijUs7scAAdTXLnxc331sJ5PtH/HlbKp86cd5GHRE9M/WurdVdSrgMp4IIyDS4FKLS3QzIt9P/ALTsgfEOn2EkzknyvLEgQdgSep9xgVj3fw58Mzy+amnCCTBGYZGUcjGducfpXUX15bWNu097PHBCvV5GAAqtp2t6XqUmywv7aeTrsSQFvy61SnNaxYuVbnmXhrVLnwL4jm0XV2J06VsrIei56SD2Pf8A+tXrqkMoZSCCMgjvXN+OfDMXiTS9i7UvYctBIfXup9jXI/DvxVLp1z/wj2v7onjby4Xk6of7h9vQ/wD1quS9quZb9St9Tv8AVbq606QXSxm5sQMTRov7yL/bX+8PUde49Kv2txDd28c9tIssMg3K6nIIqSsG4srjR55LzSIjLbyHfcWK8ZPd4/RvUdD7GslZ6dRG5NEk0TxSorxuCrKwyCD1Brlknl8IsIbvzJtBJxFPyzWmf4H7lPQ9uh7V0Om39tqVotxZyiSM8HsVPcEdQR6GrLqrqyuoZWGCCMgihO2jA5u/tp4pf7a8NPHP5oDT2wceXcj+8p6B/fv3rT0PWrPWbYy2jEOh2ywuNskTejDtVS08NW2n6iLrSZp7JGbMttG2YZP+AnofcYpmveHBeXI1DS5zYaugws6DiQf3XH8QqnyvQZ0FFYvh7Ub+4MlrrFi9tewjJdATDKP7yt/Q81tVDVnYR5/44+I0Oh3b6fpcC3moJ/rGc4jiPocck+w/OuJj+KHiZZt7f2e6/wDPMwsB+YbNcbdJPFfXcd7n7Ys7ibPXfuOajr1I0KcVa1zG7ep7R4W+J9jqU6WusQ/2dcudqyFt0Tn/AHv4fx/OvRK+UmUMCGGQa9e+DviiW7jk0LUJS80Cb7aRjy0Y4Kn3XjHt9K56+HSXNAqMnsz0S91K1srm1gupRG90xSIkcMw7Z7H0q3VLWNLtNXtPs1/F5ke4OOSCrDoQRyDV0dK49LGgV4J8VNeudW8SXWneY66fZN5QhBwHcfeZh354H09697rg/HPw8t9euJNQ06YWepMPn3DMcuOm4dj7j8q3w04wneRE02jw8AKMAAD2pHRXGGUH61o67omp6BP5Wr2bwAnCyj5o3+jDj8OtZ9elfqiNGeg/DXxxNpl3DpOszNLp8pCQTSHJgbspP90/p9K9rr5SdQ6lW6HivePhRr7614aEN0+69sSIJCTyy4+RvxHH1BrjxVJW9ovmVF2djQ1K4vvDkjXZaW+0cnMqN80tt/tKerJ7HketdBaXMN5bR3FrIssMi7kdTkEVIwDKVYAgjBB71zWg6bNoGs3FnArNo91maDHIt5P4k9geo+mK5NJLzNDp6w/GmijxB4avdPGBK67omPaReV/UY+hNbdFTGTi00Jq+h8plXjd4p0aOaNikiMMFWHUGmyIHXB/A9xX0L4p8C6N4imNxcRyW96Rg3Fu21m/3hyD+IzXFXXwhuVb/AEPWo2XsJrfBH4g/0r04YmnLW9jNxexxvgbxPqXhnWU1PTmPnQnbMh+5Kh/hYeh/Q19geCPF2meMNIS902UeYABNbsfnhb0I/kehrxTwR8PofD8l1Pf3K389xF5LJ5e2MJkEjBznoOTWTrmi6j4E1ZPEfhOV0gjP72HJIVSeQR/Eh/T9R04XMY0qnJvFmGIwqxEb7SX9an1JRXN+AvFdn4w8PQ6lZ/I/3J4ScmKQdVP8we4NdJX0UZKS5lseBKLg3GW6CikpaokKKKSgBaKKKACikooAWiiigAooooAKKKKACiiigApKWvMfjH48k0G2TRNCJl8QXw2oE5MCnjd/vHt+fbnOrUjSi5SNKVKVWShHc5/4w+Pbu8v28IeEWaS8kPl3c8Z+76xg9v8AaPbp61neCPC+n+H7NphJFc32CJrgHIQ91X0H6mufi8J3Om22m6bA8n2vU5GbUbxM5SNQCUDdgc9e5/Ku5nk0zwxojSP5dpYWy54H+ckn8Sa+SxmKliJXvv0PpKNGNCHLEDc3t4+2zh+zQd7i4X5j/up1/FsfQ1oxqUjVSxcgYLN1P5V4D4t8ear4gmeO1ll0/Tc/LFG213Hq7D+Q4+vWsTTde1nS5Few1W8iI52NIXQ/VWyDUfVG1q7MfP2R9GavqS6aLPfG0hublLZQvYtnn6DBq/XAeA/G0fihG07Ukjt9WRCyMg+WQYxuTPRhnkf5HYaa90bq/iniK28Uirbuerr5a5/8ezzXNOm4Oz3LTT2LMl3bxyiOSeJZD0RnAJ/CpqiuraC7iMV1DHNEeqSKGB/A1hy6Ld6ZmXw7cFFHJsbhi0L+yk8ofpx7VKSYzoarX139kjDeRcTk/wAMKbjVXTdXS5tZpLuCWxltxmeO4GAnuG6MvB5FZMcuo+JblZbSefTdGQ5SVABNcn1GQdqfUc/yFHXUC1Nca1qYMVnanS4Twbi5KtLj/ZjUkZ92P4Ve0bR7TSY3+zqzzyHMs8p3SSn1Zv6dKotpWtR/8e3iB2A6Lc2sb/qu00qL4njOGbR7hfXEkRP/AKFVPVWTA3q8B+Ini248RanPaW0rJo8DlFRTgTkHl29RnoK93tvtElt/pkcUUpyCIpC4/Mgfyr5dmtZLG6uLOYYltpXice4JFdOEirt9UZz7EaqFGFAA9qWiiu0QhB4KsVdSGVlOCpHQivoj4d6+3iHwxBdTkfa4iYLjH99e/wCIIP4188V6z8CC32PWl/5ZieMj6lTn+lYYmKdO/YFuepnpxWJdaNeyuXi1/UImPQbIio/DZW3RXmp2NTmZNO8RxKQmqWGoR/8APO8tdmfxQ/0rF1W1guZon1jRL/S7yA5S+0seYPrlRn81rt5LyJWnRA8ssIVmjRcnnp7dqzZdcuEPyaFqsnuFjH/s9aRk+36Duc7B4c1S9jjvNM8XajsPKiaNvyKkj9RSeKPBd1runia5ktv7ahXCzxAqs4HZgeh962pvE01tC897ot7a2sYy800kSqo/F656b4t6IlwyRWeozQg4EqxqA3uAWBxWkVVk7xRLlbcj8DeMpbacaH4l3Q3UR8uOaXj/AIC/v6Hv/P0nNea6jJ4a+IkWzT7tbfWUX92JV2OR/dI/iH0zis7w/wCL9R8LXn9j+J4pHhj+VZDy6DsQf4l/z7UTpc2qVn2KVpao7vV9HuI7ptT0F1g1D/lrE3+quQOzDs3o1WNA1631bzISjW1/DxPaS8PGf6j3FaNjd299ax3NnMk0DjKuhyDWV4j8PRat5dzBK1nqcHMN3Hwy+x9V9qxunpIRtswVSzEBQMkntSRSpNEkkTBo3UMrDoQehrltH8SSxXq6R4miS11E8Ry/8sbkeqnsfb/9VdTFGkUSRxKFjQBVUdAB0FKUXHcBklzDFcQwySos02fLQnBfHJx9KlqnqGmwX8tnLMGElrKJomU4IOMY+hzyKlsUnjtIku5VlnUYd1XaGPrilZWA8u+L3hJy7eIdNjLEAC8jUckDpIPoOD7c+teVqQwBByDX1YQCCCMg9Qa8w8VfCyO6uZLrw9cR2jOdzW0oPlZ9VI5X6YI+ldtDEK3LMzcbao8irR8NX7aV4l0u+U4EVwof/cb5WH5E1sXPw98VQMQumxzj+9FcJg/99EGtPwz8NtaudUt5NZgSysonEkgMqu7gHO0BScZ9TXS6kLatWJeux7hRRRivINgoqrJqFlHceRJd26T/APPNpVDflnNWhg9KLARXVvBd27wXUMc0DjDRyKGVh7g15P4z+GJhWS98LglR8z2LNn/v2T/I/h6V67iitKdWVN6EuKZ8p8h2R1ZJEO1kYYZT6Edq7b4O35tPGf2bP7u9gZCP9pPmB/IN+dejeO/A9p4kgM8Gy21VB8k4HD/7L+o9+o/SvPPAfhnW7Lx7YG9064gS1LtJMVzGRsIG1uhySK7/AGsKtN+hm7pnudFGKMV5hsYF9Dr9ney3OnTQX9s53fY7j92yeyOB/wChCl07xE092lpfaVqNjcMcDzIS8ZPs65H4nFb2KKrmTWqC4UUYoxUgFc34i1o2esWFj5az28wxdRlCSI3OxXB6YDcEejCukxWP4j1zSPD8cN3q8yROcpEdm5znGQoHOOme3Sqgru1rivbc5Xwfev8ADb4mJayOV0LVSEyx4XJ+Un3Vjg+xzX0oDXzV4sudI8b+FZ5dGuo7i7sh56pgrIoH3gVPOCP1Ar1n4L+Kf+Eo8FWzTvuv7P8A0a4yeSQPlb8Rj8c19NlOIbTpT3R5WZUU0q0fRne0UUV7J5AUUUUAFFFFABRmijFABRRRQAUUUUAFFFFABRRUV1PFa20txcSLHDEpd3Y4CqBkk0Ac18R/F9t4N8OS382HuX/d20JP+sk7fgOpP+Irx3wBo91c3M/ifXmabVL4l0L9UU9/bI6egwKr3VxN8TvHEuq3KsPD2nt5VtE3STHPT1PU+2BXoIGBgcCvlc0xvtZckdkfRYPDewhd/E9/8grxX41au91rtvpCMfs9pGJpF/vSN0z9F/8AQjXtVfPvxUgkg8f6k0gIE6RSRk912Bf5qa4sIk538jomcrRRRXoEktley6Zf2uoWxImtZFlX3weR9CMivqSCVZoY5YzlHUMp9Qea+U5VZ0KIpZ3+VVAySTwAK+pdJga10uzt5D88UKRt9QoBrkxiVoscd2WqZPNHbwSTTNtjRSzMewFSUlcBoc1bQTeJJBc6lDJBpSNmCzkG1piOjyD09F/E10oAAwOBRS027gJRRRSAK8K+LmnRQ+JJtSsMywSKq3hjUlYZRwNxHAJGOPUe9er6zBq2p3ZsrZzYacAPNulYGWX/AGYx/D7sefStG00qytdN+wQ20YtNpUxsMhgeu7PXPfNb0qnsnzEyjdHzBnNFewa78JrK4kaXRLx7EnnyZF8yP8Ocj8zXKz/C7xJG+I206ZfVZWX9Ctd8a9OWzI1W6OJJABJ6V7l8HNMew8Ii4mUrJfStcAEchMAL+gz+Nc74b+FM/wBqSfxHcwtAhz9ltyTv9mYgcew/OvQNW8Q2OkyJZRRy3N5gBLS0Te4HbIHCj61z4iqprkhqOKbdzcoqob0QaaLu9ieABA0iAGQp7fKDn8Kj0zWdO1TIsLyGdh1RW+YfVTyK4rM0L9I7KilmICgZJPQClqjr1tLeaHqNrbHE81vJGhzj5ipA/nQld2EeCePPFU/inVH2Oy6VA5FvF0D443t6k9vQfjXOUnlvbyNbzxtFPEdjxuMMpHYilr2VFRVlsZLXUPmV0eNmSRDuR1OGUjoQa9h8LXFn8Q/Db2etqP7VssI0yYD4P3XH1xyOmR9K8erpPhzqp0jxnYSFsQXR+yy/Rvu/k2Kzqx5o6brYafK7m60Wv/DrUd6Hz9OkbkjPlSfX+63+eRXpvhbxTp3iK3zaybLlRl7dz86/4j3FbVxBFcwPDcRpLE4wyOMgj3FeY+J/h7cWdx/aPhWV0kQ7/ID4ZT/sN/Q//Wrh5o1dJaPubXvueh6zpNlrNk1rqEKyxnkHoyn1B7GuV+16x4O+S/Euq6GvC3CjM0A/2h3Hv/LpWT4a+I7QP9i8TxPFKh2mcJgg/wC2vb6j8q9JtLm3vbZZrWWOaBxw6EMDUtSp6SWgbEOlanZ6rarc6fcJPEe6nkH0I6g+xq5XJap4OVLttQ8N3LaVqHUhP9VJ7Mv+R7U2y8VXOnTJaeLbM2MpO1btPmgk/H+H/PSp5E9Yit2OvopsbpLGrxsrowyGU5BH1p9ZgJRS0UAJRUd1MLe3kmZJHCDdtjUsx+gHWsIeJnckQ6Drbntutwg/8eYU1FvYC/qWhaVqZLX+n20zkYLtGN//AH11rE/4Re90k7/DGpyW6f8APpdEywn6d1/CrwvvEF2cW+kwWSn/AJaXdwHP/fCZ/mK1dNt57eAi7umup2bczlQoHsqjoPz+tXeUVuBz669rll8uq+HppQOsthIJQfoh5Fbmk6nFqcLSRQ3UJU4ZLiBo2B/Ec/hmr9FS2n0ASivLvHfxJlsr6bTfD6RtNCSk11INyq3dVHcjuTxXHw/ETxVG2W1GGUf3Xtkx+gBreOFnJX2I510PoGivGtM+LeoQuv8Aa+nW00P8T2xKMB64YkH8xXsNrOlzbRTwnMcqB1PTIIyKzqUZU/iGpJklYfhjVJNTl1jzTkW1/JbpgdFUL/XJ/Gt2uX8DRKh12WJt0U2pzOjDow4zj2zkfhUJe6yjp6KWipASvnj4k6q2reM747swWZ+yxDsNv3j+LZr6BvrgWtlcXDDIijaQj6DNfLCO826WU5klYyMfUk5NduDjvIznukPhmmtbhLmzleC5j5SSM4I/+t7V6v8As269Jb+OPsRIEOqQsrIOAHQFwfwAcfjXk1dt8BpBH8TdEJ4AnlQfjG4/rXp0HapFrujGsk6ck+z/AAPsmiiivoT5wKKKKACiiigApKWigAooooAKKKKACiiigArw/wCMHiO68Q+Ik8D6LIY4hh9QnHpgNs+gGCfUkD1z7gelfNHhiMXvxL8avPkkzzxE5wQDKRwe33RXm5pWlSo+71PRy2lGdRyfQ7nStPt9L0+Gzs4wkES7VHr6k+5q3WPot9L9pm0vUGzfW43K548+I9HHv2I7H6itg8g4ODXyMr31PcMfWtfttMlS2VJbvUJRmO1gG529z/dHua4zxn4W17xbFbXMltp1jc2+7y0MzO7Kf4WYDFd1o+j22l+bJHulupzumuJTl5D7n09AOBWjWkans3eImk1Y+cL3wf4ks3KzaNdP/tQYlB/75NSaf4J8S37hY9JlgXu90RGB+B5/IV9F1Xtr23uZJY4ZVaWI4eM8Mv1B5Fb/AFyVtkTyeZw3gn4b2+i3UWoarMt7fx8xqoxFEfUA8k+5/Kum1zWbrSriP/iU3V5ZsPmmtvnZD6FOv45rbornlUc3eepSSRit4n0tVVjJcc9haykj8lrTsruK9t1nt/M8tum+NkP5MAaratph1FUUX99aBc/8esgQn6nBrHfwtdoCbTxJrCP2MsglX8iBStFoZ1FFZugjVEtXi1owyTxthZ4uBKvqV7H1FUPGXiux8L2Ilucy3UmRBbIfmkP9B6mkoOUuVaibsdDRXzZ4i8T6v4imZtRunSAn5bWFisaj6fxH3Nep/BKaaXwlOs0jukV48ce452rtU4Htkmt6mGdOHM2SpXdj0Cg5xx1paSuYswLvTtflctBr0MA7ItipA/EsTUC2viyA/JqOlXQ/6bW7J/6Ca6eiq52FznkvPEcXE+k2Nx7wXZX9GX+tVNNku9JimFv4bvWlmkaWRzcQszsTnlt2fYV1dFPn8guQWUs01rHJc25t5WGWiLhiv4jiodQ0uzv1/wBIhXzB9yVRtkQ+qsOQavVXvFuSmbOSJJB2lQsp/IgipT10AnAwAOtFc5Lq+vWsnly+H/tHpJa3SlT+DAEVNYP4gu71JbuK00+yU5MIbzpX9iwwo/DNPlYWJPEHhjSNfTGqWUcsgGFlHyyL9GHP4dK871n4SToWfQ9SDr2hvBz/AN9r/hXr1FXCvOGiehLimfN+peD/ABHpuftOkXDoP47fEw+vy8/mKyrTT9QvL2K2sbS5a8LrtHlMNpz1PHAHrX1LRXQsa+sSXDzEpNw3FcjcBnGecU6sTxGdFaJf7XuoLaROY5PP8qVP90gg1xpXZoM8S+FtM8QR/wCmw7LgDCzx8OPx7j2NedzaF4m8D3D3WkSm7sc5cIpII/20/qPzFbcHiBLa48rTPFtvdJnAj1KBsf8Af0AV0tt4jMMkMWtWos/OO2K5jkElvIewDjoT2BArdOcNN0Vqil4S8dadruyCYi0vzx5Tnhz/ALJ7/TrXVzxRzxNFPGkkbDDI4BBHuDXKeKfAmma2GngAs708+bEOGP8AtL3+vWuXtvEev+CrmOy8RQteWJ4jmBycf7Ld/oefpU8inrDfsK19j0HStBs9JuZJdPM0MUgINsJCYgc53BT0P0rVrN0PXdO1y383TblZcfeTo6fUdRWnWUr31EJRS0UgEoqG9uorK2eeff5ScsUQuQPXABNM0/ULPUYfNsbmG4j9Y2Bx9fSnZ2uBZopaKQCUHJBA4NLRQB8q3NvPZXtzaXgK3UMjLKG67s9fx60yvpHXPCmia7KJdU06GeYDHmco+P8AeUgmsyD4ceFYXDjSw5H/AD0mkYfkWxXorFwau07mXK1oeQ+CPDE/inVUjCsumQsDczdAR/cU+p/SvoqNFjRURQqKMADoBTLS1t7K3SC0hjggQYWONQqj6AVNXJWrOq/IuMbFXUbU3tnJb+dJCsnys8Zw23uAe2emafZWsNjaRW1pEsUES7URegFT0VjfSxQlFLRQAyWNZYnjkUMjgqwPcHrXzR4o0Sbw5rtxpswby1O+3c/8tIz0P1HQ+4r6Q1O8j0/T7m8mDGOCNpGC9SAM8Vg+INC0/wAb+HrWSTdC7xia2nA+eIsAfxHqK6cPV9m9dmRKN9UfPVdR8KzLYeOfDM8qNGJr2NlLDG5Wfbn6da17P4U6zJqKw39zaJYBvnmiYlnX0CkcE+/T3rrPiHpdvpqaBqtnGIhptxFEAvaMEFfyI/Wu5YiKnFJ31J5eZNeTPpMdKWkHSlr6o+XCiiigAooooAKKKKACiiigAooooAKKKKAEPSvnDwuPI+KfjOA8E3Mrge3mn/4oV9IV87eIo/7D+Pl2G+SHU4gyn13IP/Z0Irys3g5ULnp5XK1SS8jf8RaU9/DFPZSCDUrUl7absD3VvVT0NHh3Wk1aGRJYzb6hbnZc2zfejb+qnsa165/xHoUl3NHqWkyi11iAYST+GVf7jjuP5V8smmrM9o6CisHw54jj1R3s7uI2erQcTWsnX/eX1Wt+pcXF2YCVn6ppFtqJSSTfFdR/6u4hbZIn0Pp7HIrQopJtbAc813rek8Xlr/atsP8AlvagLMB/tRng/wDAT+FaOk6xZaqrfY5syJ/rInUpIn1U8itCmmJDIJCi+YBgNjkD61TafQB1Fc5L4st5b5rPR7W41S4Q4cwACJD/ALTnj+ddBA0jQo0yLHIRllVtwB+uBmk4tbgVda1GDSNKutQu2xBboXb1PoB7k4H4182azql1rmqz6lftmeU8LniNOyD2Fep/HO/aLSNN09TgXU5d/dUGcfmwP4V5BXoYWHLDm6syk7sK9s+CTKfB8oU/Mt5KG+uFP8sV4nXbfCrxPFoGrTWV+4jsL4giRjxFKOAT6AjjPsK0rwc6bSC9nc92rO1nSxqcca/bL20eMkq9rMUP4jofxFaIORkdKK8pO2qNTl5IPE+lDda3NvrMA/5ZTqIZsegYcH8RU2i+K7bUL4WFxaXljqGOYJ4jz7hhxj3OKu6j4g0+xmMDStPdf8+9uplk/wC+V6fjis59U8Q3R/4l+hx28Z6PfThSf+ALkj861SutV+gzpqK5tG8XZ+ePQgPQNL/hWvpo1HDHU2tM/wAK26tx9ST/AEqHG3URdooplxPFbQSTXEiRxRqWd3OAoHUk1ICXE0VtBJPcSJFDGpZ3c4Cgdya8t8QfFlUnaLw9ZJcIpx9puSVRv91RyR7kiuZ+IfjOTxNcm0sWaPRom47G4YfxH/Z9B+J9uP7V6FHDJK89zNyb2O7i+KviFXzJbaW6/wB0RuP13V0uifFmxnkWPWrKWxJ486NvNj/HjI/I14/R1rWVCnLoLXufU9pcw3lvHcWsyTQSDckiMGVh7Gpa+d/Aviy48K6gA7NJpMrfv4euz/bX0I7jv+VfQ0MqTRJLEweN1DKwPBB6GuCtRdJ+RcZXEmiWaJ45MlHGDgkHH1HNYsXhHQY5PMGl27uTkmQF8/8AfWa3qKyUmtmURLBEkIhSKNYgMBAoCgfSqzaVYNBLAbODyJRh4wgCt9R0z71eopXYFPS9OttLtBbWSNHACSFLs2M+mSePal1PT7XVLN7W/hSaB+qt29wex96fe3dvY2z3F5MkMCDLO5wBXJi51DxhLss/OsPD4Pzzn5Zboei/3V9//wBVXFN+8ByuqeB9T0W6Gp+E7prhEJIVGHmLg8j0YdsfpW1ofxLtji38QW8tldJ8ruqErn3H3l+nNd9a28NpbR29tGscMahURegAqjrOgaXrKY1KzimbGA+MOPow5q/aqWk0O99xLLxDo96B9l1O0cn+HzQG/I81pqwYAqwIPcV5tq/wrtHR30u9mifBIjlAcE+meCP1rivBnhfxH4ilu18OI5ltNplAuBEVznHUj0NaU8OqrtTd2KTjFczdke/1gat4U0++nN1B5thf9ftNo3lsT744NcK+l/FDQuXs9VlVeuFF0P03U2D4laxp0oh1vSkLjqCrQv8Akc/ypywtWmKMoy+FpnWeb4q0T/XRw67Zj+OP91OB9Oh/DJq/pfi7Sb+XyHmazuxwbe7XynB9OeD+BrM0r4j6FekLcPLZSHtMny/mM/riuguLXSfEFoDLHaX8B6OMPj6EdPwrGSt8asV6mmORkHiiuSfwfLZZbw7rN7p2OkLN50X/AHy3/wBeoTeeM9M4uNPstViH8du/lufwP9BU8iezFY7OiuLHxAtLZgms6ZqWnSH/AJ6xZX8+p/Ktay8YeH7zHk6rbAntK3ln/wAexQ6cl0CzN6io4J4bhN8Escqf3kYMP0qWoASigkKMsQB6mhWDDKkEeoNABRRWbqevaVpeRf39vCw/gLgt/wB8jmmk3sBT1/SbjUtTswHIsTb3EFyA2Dh1ABx35Faek2S6bpdpZI5dbeJYgxGN2BjNc9/wmsV0duiaXqOpMejpEUj/ABZun5Ux7HxPrTf6deRaNaH/AJY2h3yke79vwrRxdrS0Qze1XWtN0lc6heQwk9FLZY/RRyfyrm/Ht2mp/D7ULiOGeJAYynnJsLDzF+YA84574rZ0bwtpOkv5sFt5t11NxOfMkJ9cnp+GKzfitMIvBV4pODK8aD/vsH+hohy8ysC3Pc9En+1aNYXGc+bBG/5qDV2sbwSGHg3Qg/3hYQZ+vlrW1X3UXeKPk5K0mgpKWiqJEpaKKAEopaKACiiigAooooAKKKKACvF/2jdBnay03xNp6n7RpzhJWUchCwKt9A3/AKFXtFQXtrBfWc1rdxrLbzIUkjYZDKRgg1lWpKrBwfU2oVXRqKa6HjnhfXLfxBpEV5bkB8bZY88xv3H+HtWvXC+Jvh14i8CanLqvg4yX2mNy9uBudF/usv8AEB6jn6daZonxL026YQ6rFJYXGcEkbkz9eo/EfjXx+IwdSjKzR9JTqRqrmg7nR+I/D1rraI7M9vfQ8wXUXDxn+o9qx7TxJeaHcJYeLowgY7YtRjH7qX/e/un/AD7110E0VxCksEiSxOMq6EEEexpt5awXtu8F3Ek0LjDI4yDXMpdJbFkkbpLGrxsrowBVlOQR6g06uJfQdX8NyNN4Wn+0WRO59NuGyB/uN2/z1q/pHjPTryb7LfB9Mvxw1vdDbz7MeD+h9qHDrHVBY6eqmqRzz2bQWzFHl+QyDrGp6sPfGce+Ktg5GQciioWgFXTNPttMso7WxhWGCMYCqP1PqferVFGaL3A8p+O9sxi0S7A/dpJLCx92AI/9BNeU19LeKdEg8RaJcadcnaJBlJAOY3HIYf59a+d9d0i/0C+a01aExOD8kuP3co9VNelhZqUOXqjKWjKNIwDAhhkGk3rj7y/nQjiRwkWZHPRUBYn8BXTZiujv/hz45udKu7bStVkM2mSMIopHOWgJ4Az3X+X6V7bLGssbRuMqwwRnHFfP/hnwHrWs3cBubOWxsA4aSW4GxioOcKvXJ9elfQVedi1DmTjv1KgQWdnbWUXl2dvFBH/djQKP0qeq13NcRAG3thP6jzAp/Xj9azX1m/ibEmgX5HrHJC3/ALPXPZs0NuioLG4a6txK9vNbknHlzABh+RIqepAiuphb200xVmEaFyqjJOBnAr518T+MNV8UDbdyiGw3bltYeF9tx6sf09q+j68s8a/DL7RPLf8Ahto4pXJaSzc4Rj3KH+E+x4+ldWFnCL97czmmzyYUVNqFrdaZcm31O2mtJx/DKuM/Q9CPcVCDkcGvRJTuIxCqWY4A612nhz4cazrNrHdXEkOnW0gDJ5il5GHY7RjH4nNYPhXRZfEWv2unxKTFuElw2OEjB5z7noPrX0uOOlc2IrOnZR3GlzM8ttvhBagj7brF1KvcRRLHn8TmvStPtIrCwtrO3BENvGsSAnJ2qMDn8KsZozXDOrOp8TLUUtgoozVG/sWvTte7uYoe8cDBN31YfN+RFZooXUdVsNNXdf3kFv6CRwCfoOprJbX7y/8Al8P6ZLMD0ursGGEe4B+ZvwFaFhoOl2EnmWtjCsvUysN7n/gRyf1pnirWP7B0OfUfI8/yio8vdtzlgOuD61ateyVwKFv4X+1XKXniK6bU7lTlIiu2CI/7Kd/qa6UAAAAYA6AVW028j1DT7a8hBEc8ayKD1AIzVnNKTb3AKr6heQ6fZyXVyxWKPG4gZ6nH9asVzvi3X9O062NpdR/bbqfiOyj+Z3PbPoM9/wAqUVd2A5/Xtb1XRtT1a5nJ8iP9xYIw/wBdJIIyMDuFwTn3IqT4ZXsnhv4ySWV1iNNUi2uBwokZRIMf8CBUfWruhaBe32qJrnigq12vNtaLyluP6t/n6YHxWgGk6xpGv2ZZbxZgSSxwSmCpHp0Nd+FrKnVi0TVgqkHDufUdVr2xtb6Ew3ttDcRHqk0YdT+BpdPuo76wtruA5iniWVD7MAR/Op6+w0aPldUzzvxD8HfCWrh2isn06c/x2b7B/wB8HK/kBXmWs/BjxPoEzXXhbUReAchUfyJcemCdp/P8K+kqSuarg6VTdWOqljq1PZ3XmfKtv468QeHroWXinTZSy9fMjMMuPXphvy/Gu70DxXpGuACyulE56wS/K4/Dv+Ga9j1TS7HVrVrbU7SC7gPVJow4/WvKvFPwL0a+LzeH7qbS5+ojbMsWfxO4fmfpXk4jJnvTZ6NLMqctKisXnRZEKuoZTwQRkGsS78JaDdsWm0q13HqUXZn/AL5xXLXPhz4meEyRFHJqlonQxH7QCPofnH5VTi+J15ZS+RreitFKPvBSYyP+AsP615M8JWpPY74TjPWDudSngPw/HIJILSWFx0MdxIpH/j1b9hZJYw+VHJPIvrNK0h/NiTXIWfxN0GbHnC7tz33xZH/jpNbNr4y8PXOPL1W3XP8Az0JT/wBCxWEo1PtXLszZu7WC8t3gu4Y5oX+8kihgfwNZ9j4b0iwuBPZ2McMoOQUJH6ZxVy31GyucfZry2m/65yq38jVqou1oIR0DoysMqwwR7VnWmg6TZtuttOtI367hEN359auz3MFuu64miiX1dgv86yrnxXoNvnzdWs8jskgf+WaaUugG1RXLSfEDw0hx/aO4/wCzDIf/AGWqF38TdBhU+T9quD22RY/9CIpqlN9AszuK8o+KWptrOsWHh7TP30omAcLzmVvlVfwyfz9qn/4SjxR4wlNl4T0maNWO1pk+Yr9XOFT/ADzXqHwq+FcHhaVdV1l0vNaIJUjlIM9duerf7X5ep9LBYCpUkpNaHPXxMKCu3r2PS7C3W0sbe2T7sMaxj6AYqxSUtfWLQ+aCiiigAooooAKMUUZoAMUYoooAKKKKACiiigAooooAMVyHjT4eeH/FkTm/tFhvSPlu4AFkB9z/ABD2Oa6+iplCM1aSuVCcoPmi7M+U9Z0rxJ8KNYAYm70eVvlcA+VL7EfwPj/JFeh+HNfsfEFkLixkyR/rIm4eM+hH9a9f1PT7TVLGWz1C3juLWZdrxyDIYV8+eOPhbq/hG9bW/BMs89omWaBfmliHcY/jX9fr1rwcdlf26Z7eFx8avu1NH+Z3VUNW0fT9Xh8rUrSK4XsWHzL9COR+Fct4R+INlqoS21PZZX3Tk4jkPsT0Psa7jivAlGVN6nobHFnwjqWlHd4Y1ueBB0tbr95H9B6flmkPiXxBpPGvaC80Q63Fgd4x67e34kV2tFV7S/xK4XOd0rxnoWpYWK+jhlP/ACzuP3Zz6c8H8DXQqwZQykEHkEd6zdU0DStVz9vsIJmP8ZXD/wDfQ5/WuebwMbJi/h7WL7Tj18st5kf/AHz/AI5otB9bBodpUV1bQXcLQ3UMU0TdUkQMp/A1yH2nxppX/HxZ2WsQj+OFvLkx9Dx+QNSQePtOjkEOsWt7pc3cXEJx+BHP6UezlvHULGovhDw6r7xoem597dSPyxWraWVrZrttLaCBfSKMKP0qHT9W0/UVzY3tvce0cgJH1HUVdqZSk9GxWSCiiipGUtX1Sy0i1FxqM6wQlggYgnJPQcVdBBAIIIPSub8b+GD4ns7eAXZtvJcv9zeG4x0yK6GCMQwRxDJCKFBPsKppWVtwH0UUVIBRVa/untYw6WlxcjuIdpI/AsM/hms1fE+lq4ju5ZLGQ8bbyJof1YYP501FvYDVvLS2vYTDeW8NxEeqSoGU/ga5m6+HXha5cu2lIjH/AJ5Sug/IECuphljnjEkLpIh6MhyD+NPpxnKHwuwmk9zN0LQtM0G2aDSbSO2jY5bbksx92OSfxNaVFFJtt3YJWFopKKQwpaQkAZOAKw7/AMV6JZSeXJfxSTdPLgBlbPphc00m9gN2s7xBpUWt6PcafO7JHMBll6jDAj+VZI8UXNxxp3h/VZ/RpUWBT+LGg3Hiy6/1Njpmnqe88zTMP++QBVKLTvsFjoLK2is7SG2t12wwoI0HoAMCs/WvEWlaMp+33kaSdolO5z/wEc1mN4b1O+/5DHiG7dD1is0EC/TIySK0dI8M6RpLB7KxiE3XzX+d8/7xyfyotFat3Aw31HxF4j+TSLU6RYN1u7pf3rD/AGU7f55rY8O+GLDRC00Ye4vpOZLqc7pGPfntW5TJ5o7eF5Z3SOJBuZ3OAB6k0Obei0C4+vG/iLqT+KPE1lo+jKbkxP5SbORJKxAOPYYAz9ateMPG9zrdwNH8MJK6TN5ZkjU+ZMT/AAqOoH6n2r1n4OfDJPCkA1TV1STW5VwFHK2ynqoPdj3P4Dvn0cBgZVZXZhiMRHDx5nv0R6F4a05tI8PaZpzSeY1pbRwF/wC8VUDP6VpUUV9YlZWR803d3YUUUUxBRRRQAYqte2FpfxeVfWsFzF/cmjDj8jVmihq4LQ4nVPhZ4N1HJl0OCFz/ABWzNDj8FIH6VymofAPw7Nk2V/qVsx6Askij8CoP617DRWEsNSlvFG8cVWhtJnz5efs93Ckmy8QRP6CW2K/qGP8AKqafAbxGh2rrdiqezSfyxX0fRWTwFF9DdZjX7/gjwOw/Z9ZiG1PxAT6rDb/+zFv6V0Fn8BvDEODcXWqXB75lRR+i5/WvXKKuODox+yRLHV5faPO7f4M+CYsb9Mllx/fupf6MK2dP+HXhGwYNb6BYlh0MqeaR/wB95rq6K0VCmtor7jKWIqy3k/vI4IIoIljgjSONeAqKAB+AqSiitTEMUUUUAFGKKKACiiigAxRiiigAooooAKKKKACiiigAooooAKKKKACiiigDzL4jfCTSvFPm3unbdO1Y8mRF/dyn/bUd/wDaHPrmvHmuvF3w4ultdctJZtPztQud0bD/AKZydvofyr6uqC7tbe9tnt7uCKeCQYeORQysPcGuHE4CnX12Z3YfHzpe7LVHjPhzxLpviCAPYzjzQMvA/Dr+Hce44rarN8YfBCxupmvfCl02l3YO4QsSYs/7JHzJ+o9hXC3svxC8GZGr2El7Zp/y2K+amPXzF5H/AAKvn8RllWk7paHr0sVSrfC9ezPTKK86034qadLhdQs7i2Y9WjIkX+h/Suo0/wAXaDf48jVLcMf4ZW8s/k2K8+VKcd0dFmbtRzwxXERjniSWM9VdQwP4GnRyJIoaNldT0KnINOqAOX1HwHoF629bM2svUPbOUx+HT9KrR+E9Usv+QV4nvo1HRLlBMP1/wrsaKv2ku4XZztnD4qglQXF1pN1DkbmMbxvj2xxXRUUVLdwCql/qENjgzrcEHnMVu8mPrtBq3RSXmBgSeMNDiOJrx4j/ANNIJE/mtOj8X+H5Pu6taD/efH863cZ61WmsLOb/AF1rbyf78YNV7oaFJfEuht01ew/8CF/xpZNc0OaMpLqemujcFWnQg/hmlk8O6LL9/SdPJ9fs6f4VXbwloDHJ0iz/AAjAp+55hoY/2Xwnb3n2qw1eDT5Sct9kvVRW+q5K/pWzJ4r0CP72r2Z/3ZQ38qF8KaAOmkWX4xA1KnhrQ0+7pGn5/wCvdD/Sqcove4GbP498Nw5/4mIc+iRO39Kqp47jvDt0bR9Tv27MI9ifi3OPyrpodL0+A5gsbSMjukKj+Qq4AB06VN4LoPQ5mzPiq/lV7kWGlW2c+WoM8v0znbXTdqKKlu4iC9s7e+gMF3Es0JOSjcg/Ud6LSztbNNlpbwwJ6RoFH6VPRSu9gCikd1RSzsFUdSTgCud1jxroWl5Et8k0o/5Z2/7w/pwPxNNRctgsdHRnivKdU+K0h3LpWnKvo9w2f/HR/jVS30r4g+OMeXbXv2N+7D7PDj6nG4fnXRTwlSo7JCk1BXk7HbeI/HWkaMGjWUXl0P8AllAc4P8AtN0H8/auFto/FfxP1L7NYwlbJG+bGVgi93bufzPoK9I8G/Ae0tmjuPFN39scc/ZbclY/+BN94/hivZ9OsLTTbOO00+2htraMYWOJQqj8BXtYXKbPmqHn18yhDSlq+/Q434cfDfSvBkAlUC71V1xJduuCPZB/CP1Peu7oor24QjTXLFaHjTqSqS5pO7CiiirICiiigAooooAKKKKACiiigAooooAKKKKACiiigAooooAKKKKACiiigAooooAKKKSgBaKKKACiiigAooooAKKKKACiiigAooooAKKKKACkwKWigDl/EHgLwxr5ZtS0e1aVussa+U5Puy4J/GvOtc+AGmTln0XVrm0PUJcIJV+mRtI/WvbaKxnh6VT4om9PFVafwyPly++D3jfRHaTSZYrkDkNZ3Jjb8m2/oTWa+r+PvDRxqlnemJf+fu2LKf8AgYHP519a0YHpXFUyulPY7IZpUXxJM+W9P+K6HA1DTGHq0Emf0P8AjXQWfxH8O3GPMuJrcntLCf8A2XNe2ap4X0LVcnUNH0+4Y/xSW6lvzxmuT1P4OeDL3JTTpLRz/FbzuP0JI/SuKeS/ys6Y5nSfxRaOas/Emi3mBb6pZsx6KZQp/I81qqwZQVIIPQisLVP2fbB9x0rXLqE9luIll/Vdv8q5i6+Evjvw+GfQ75LmPrstbgxk/VWwP1NcdTKa0dkdEMZQntL7z0WivILm++I+j5F7Z6iEXqZLLev/AH0F/rVUfEzxBbtsuLezZh1EkLKf0YVxywlSO50xtLWLue00V44firqu3/jxsd3rh/8A4qltvFHjnXjjSLKZg3e0sy4/Mg4pRwtSWiB6as9irPvtb0uwz9s1C1hI/heUA/l1rgYfhv8AEfXxnUZHt4m7Xd3gf98rnH5Vt6f+z5eOAdR1+3iPdYLcyfqSv8q66eV1pdDCWKoR3mvzLFx8QPDcJI+3mQ/7ETn9cYqAfEjw6TzPOPcwtW1B+z7pCgfaNZv3P+wiL/MGpW/Z/wBBI+XVdUB9/LP/ALLXQsnn2/Ey/tDD9/wMiP4geGn/AOYgVPo0Mn/xNWF8beHGGRqkP4qw/pUzfs+aZn5NcvAPeFTT4v2fdJBHm61fsP8AZjRf8aX9j1O34of1/D9/wM+48feG4R/yEPMPokTn+mKx7z4p6THkWtpeTn1IVAf1J/Su6tPgP4VhIM1xqlwe4eZQP0UVvWHwl8F2ZBXRkmYd55Xf9CcfpWkcll1M5ZlQWybPCrz4rX8mRZadbxZ6eYzSH9MUy3v/AIh+IcDTrTUPKbo0FrsT/vsj+tfUGmeH9H0vH9naVY2pHeGBUP5gVp8V1U8ngviZjPNf5IfefMll8HfG2tur63dxWynk/arkzOPoFyP1FdrofwD0a22vrGpXd646pEBCh/mf1Fez0V2wwNGHS5yTzCvPrb0Oc0DwT4c0DadL0e0hkXpKyb5P++2yf1rosClorqjFRVoqxySk5O8ncKKKKokKKKKACiiigAooooAKKKKACiiigAooooAKKKKACiiigAooooAKKKKACiiigAooooAKKKKACiij8KACiiigAooooAKKKKACiiigAooooAKKKKACiiigAooooAKKKKACiiigAooooAKKKKACopreGdcTwxyD0dQf51LRQBRj0jTY3Dx6fZo4/iWBQf5VdAAGAAKWikklsNtvcKKKKYgooooAKKKKACiiigAooooAKKKKACiiigAooooAKKKKACiiigAooooAKKKKACiiigAooooAKKKKACiiigAooooAKKKKACiiigAooooAKKKKACiiigAooooAKKKKACiiigAooooAKKKKACiiigAooooAKKKKACiiigAooooAKKKKACiiigAooooAKKKKACiiigAooooAKKKKACiiigAooooAKKKKACiiigAooooAKKKKACiiigAooooAKKKKACiiigAooooAKKKKACiiigAooooAKKKKACiiigAooooAKKKKACiiigAooooAKKKKACiiigAooooAKKKKACiiigAooooAKKKKACiiigAooooAKKKKACiiigAooooAKKKKACiiigAooooAKKKKACiiigAooooAKKKKACiiigAooooAKKKKACiiigAooooAKKKKACiiigAooooAKKKKACiiigAooooAKKKKACiiigAooooAKKKKACiiigAooooAKKKKACiiigAooooAKKKKAEpaKKACkoooAWiiigAooooAKKKKACiiigAooooAKKKKACiiigAooooAKKKKACiiigAooooAKKKKACiiigAooooAKKKKACiiigAooooAKKKKACiiigAooooAKKKKACiiigAooooAKKKKACiiigBKWiigApKKKAFooooASiiigD//2Q==;" vertex="1" parent="7">
                    <mxGeometry x="206" y="130" width="348.99" height="200" as="geometry"/>
                </mxCell>
                <mxCell id="10" value="&lt;font style=&quot;font-size: 48px;&quot; face=&quot;Georgia&quot;&gt;Cookie Clicker&lt;/font&gt;" style="rounded=1;whiteSpace=wrap;html=1;fillColor=#a0522d;fontColor=#ffffff;strokeColor=#6D1F00;" vertex="1" parent="7">
                    <mxGeometry y="20" width="760" height="60" as="geometry"/>
                </mxCell>
                <mxCell id="11" value="You clicked cookie 24 times!" style="text;strokeColor=none;align=center;fillColor=none;html=1;verticalAlign=middle;whiteSpace=wrap;rounded=0;fontFamily=Georgia;fontSize=48;" vertex="1" parent="7">
                    <mxGeometry x="15" y="400" width="815" height="30" as="geometry"/>
                </mxCell>
            </root>
        </mxGraphModel>
    </diagram>
</mxfile>